<svg xmlns="http://www.w3.org/2000/svg" xmlns:xlink="http://www.w3.org/1999/xlink" width="300" zoomAndPan="magnify" viewBox="0 0 224.87999 37.5" height="50" preserveAspectRatio="xMidYMid meet" version="1.0"><defs><g/><clipPath id="id1"><path d="M 17 4 L 33.246094 4 L 33.246094 17 L 17 17 Z M 17 4 " clip-rule="nonzero"/></clipPath><clipPath id="id2"><path d="M 1.421875 20 L 33 20 L 33 36.980469 L 1.421875 36.980469 Z M 1.421875 20 " clip-rule="nonzero"/></clipPath><clipPath id="id3"><path d="M 1.421875 18 L 33 18 L 33 36 L 1.421875 36 Z M 1.421875 18 " clip-rule="nonzero"/></clipPath><clipPath id="id4"><path d="M 17 1 L 33.246094 1 L 33.246094 17 L 17 17 Z M 17 1 " clip-rule="nonzero"/></clipPath><clipPath id="id5"><path d="M 1.421875 7 L 33 7 L 33 34 L 1.421875 34 Z M 1.421875 7 " clip-rule="nonzero"/></clipPath></defs><g clip-path="url(#id1)"><path fill="rgb(100%, 100%, 100%)" d="M 17.917969 4.792969 L 17.917969 16.550781 L 33.246094 14.851562 L 20.832031 4.316406 L 17.917969 4.792969 " fill-opacity="1" fill-rule="nonzero"/></g><path fill="rgb(100%, 100%, 100%)" d="M 5.375 7.375 L 11.226562 12.640625 L 16.882812 17.683594 L 31.773438 15.984375 L 24.894531 23.125 C 24.894531 23.125 21.960938 30.375 19.367188 30.375 C 16.769531 30.375 7.628906 23.238281 7.742188 21.535156 C 7.855469 19.835938 8.644531 12.699219 8.644531 12.699219 L 5.375 7.375 " fill-opacity="1" fill-rule="nonzero"/><path fill="rgb(100%, 100%, 100%)" d="M 10.113281 10.320312 L 15.664062 14.527344 L 15.664062 2.957031 L 9.546875 8.621094 L 10.113281 10.320312 " fill-opacity="1" fill-rule="nonzero"/><g clip-path="url(#id2)"><path fill="rgb(95.289612%, 66.268921%, 10.978699%)" d="M 32.089844 20.402344 C 32.054688 20.785156 32.003906 21.164062 31.9375 21.535156 C 30.695312 28.808594 24.386719 34.34375 16.789062 34.34375 C 9.195312 34.34375 2.882812 28.808594 1.644531 21.535156 C 1.578125 21.164062 1.527344 20.785156 1.492188 20.402344 C 1.484375 20.34375 1.480469 20.285156 1.476562 20.222656 C 1.46875 20.285156 1.464844 20.34375 1.460938 20.402344 C 1.433594 20.777344 1.421875 21.15625 1.421875 21.535156 C 1.421875 30.0625 8.300781 36.96875 16.789062 36.96875 C 25.28125 36.96875 32.160156 30.0625 32.160156 21.535156 C 32.160156 21.15625 32.148438 20.777344 32.121094 20.402344 L 32.089844 20.402344 " fill-opacity="1" fill-rule="nonzero"/></g><g clip-path="url(#id3)"><path fill="rgb(86.268616%, 58.039856%, 15.289307%)" d="M 32.089844 18.703125 C 32.054688 19.085938 32.003906 19.464844 31.9375 19.835938 C 30.695312 27.109375 24.386719 32.644531 16.789062 32.644531 C 9.195312 32.644531 2.882812 27.109375 1.644531 19.835938 C 1.578125 19.464844 1.527344 19.085938 1.492188 18.703125 C 1.484375 18.644531 1.480469 18.585938 1.476562 18.523438 C 1.46875 18.585938 1.464844 18.644531 1.460938 18.703125 C 1.433594 19.078125 1.421875 19.457031 1.421875 19.835938 C 1.421875 28.359375 8.300781 35.269531 16.789062 35.269531 C 25.28125 35.269531 32.160156 28.359375 32.160156 19.835938 C 32.160156 19.457031 32.148438 19.078125 32.121094 18.703125 L 32.089844 18.703125 " fill-opacity="1" fill-rule="nonzero"/></g><g clip-path="url(#id4)"><path fill="rgb(89.408875%, 24.708557%, 20.779419%)" d="M 21.152344 16.1875 L 33.191406 14.820312 C 32.332031 7.113281 25.824219 1.121094 17.917969 1.121094 L 17.917969 4.792969 L 19.382812 4.792969 L 19.382812 7.449219 C 20.863281 7.664062 22.03125 8.273438 22.894531 9.277344 C 23.753906 10.285156 24.175781 11.566406 24.148438 13.125 L 24.125 13.1875 L 20.050781 13.1875 C 20.050781 12.289062 19.878906 11.617188 19.53125 11.175781 C 19.1875 10.734375 18.726562 10.515625 18.152344 10.515625 C 18.070312 10.515625 17.996094 10.519531 17.917969 10.527344 L 17.917969 14.585938 C 18.117188 14.691406 18.332031 14.796875 18.570312 14.902344 C 19.570312 15.332031 20.429688 15.761719 21.152344 16.1875 " fill-opacity="1" fill-rule="nonzero"/></g><g clip-path="url(#id5)"><path fill="rgb(95.289612%, 66.268921%, 10.978699%)" d="M 20.023438 17.320312 C 20.675781 17.707031 21.21875 18.09375 21.640625 18.480469 C 22.535156 19.289062 22.984375 20.449219 22.984375 21.957031 C 22.984375 23.394531 22.535156 24.546875 21.636719 25.421875 C 20.738281 26.292969 19.527344 26.808594 18.011719 26.964844 L 18.011719 29.449219 L 16.050781 29.449219 L 16.050781 26.953125 C 14.460938 26.796875 13.136719 26.238281 12.089844 25.277344 C 11.039062 24.316406 10.527344 22.910156 10.5625 21.054688 L 10.597656 20.980469 L 14.648438 20.980469 C 14.648438 22.003906 14.871094 22.738281 15.3125 23.1875 C 15.757812 23.636719 16.332031 23.863281 17.039062 23.863281 C 17.628906 23.863281 18.074219 23.691406 18.378906 23.34375 C 18.683594 22.996094 18.835938 22.542969 18.835938 21.984375 C 18.835938 21.332031 18.679688 20.828125 18.367188 20.46875 C 18.054688 20.109375 17.5 19.757812 16.703125 19.414062 C 14.769531 18.636719 13.359375 17.851562 12.476562 17.058594 C 11.59375 16.261719 11.152344 15.09375 11.152344 13.550781 C 11.152344 13.234375 11.175781 12.929688 11.226562 12.640625 L 5.386719 7.339844 C 2.921875 10.078125 1.421875 13.707031 1.421875 17.6875 C 1.421875 18.128906 1.4375 18.566406 1.476562 19 C 1.511719 19.445312 1.566406 19.882812 1.644531 20.316406 C 2.882812 27.585938 9.195312 33.121094 16.789062 33.121094 C 24.386719 33.121094 30.695312 27.585938 31.9375 20.316406 C 32.015625 19.882812 32.070312 19.445312 32.105469 19 C 32.144531 18.566406 32.160156 18.128906 32.160156 17.6875 C 32.160156 17.101562 32.128906 16.523438 32.0625 15.953125 L 20.023438 17.320312 " fill-opacity="1" fill-rule="nonzero"/></g><path fill="rgb(22.349548%, 47.059631%, 63.529968%)" d="M 14.605469 9.925781 C 14.324219 10.289062 14.183594 10.75 14.183594 11.3125 C 14.183594 11.878906 14.335938 12.339844 14.632812 12.695312 C 14.847656 12.945312 15.191406 13.199219 15.664062 13.453125 L 15.664062 9.394531 C 15.199219 9.4375 14.84375 9.613281 14.605469 9.925781 " fill-opacity="1" fill-rule="nonzero"/><path fill="rgb(22.349548%, 47.059631%, 63.529968%)" d="M 11.425781 7.84375 C 12.363281 6.941406 13.609375 6.414062 15.171875 6.265625 L 15.171875 3.660156 L 15.664062 3.660156 L 15.664062 -0.0117188 L 15.660156 -0.0117188 C 11.136719 -0.0117188 7.070312 1.949219 4.257812 5.074219 L 10.097656 10.375 C 10.261719 9.382812 10.703125 8.539062 11.425781 7.84375 " fill-opacity="1" fill-rule="nonzero"/><g fill="rgb(0%, 0%, 0%)" fill-opacity="1"><g transform="translate(37.128898, 20.375502)"><g><path d="M 11.578125 -10.46875 C 11.578125 -9.675781 11.441406 -8.960938 11.171875 -8.328125 C 10.898438 -7.691406 10.507812 -7.15625 10 -6.71875 C 9.488281 -6.28125 8.867188 -5.941406 8.140625 -5.703125 C 7.421875 -5.460938 6.609375 -5.34375 5.703125 -5.34375 C 5.460938 -5.34375 5.234375 -5.347656 5.015625 -5.359375 C 4.804688 -5.378906 4.585938 -5.40625 4.359375 -5.4375 C 4.359375 -4.363281 4.363281 -3.394531 4.375 -2.53125 C 4.382812 -1.675781 4.398438 -0.832031 4.421875 0 L 1.484375 0 C 1.515625 -0.664062 1.539062 -1.253906 1.5625 -1.765625 C 1.582031 -2.273438 1.597656 -2.800781 1.609375 -3.34375 C 1.617188 -3.894531 1.628906 -4.507812 1.640625 -5.1875 C 1.648438 -5.875 1.65625 -6.726562 1.65625 -7.75 C 1.65625 -8.914062 1.644531 -10.035156 1.625 -11.109375 C 1.613281 -12.179688 1.585938 -13.285156 1.546875 -14.421875 C 1.847656 -14.472656 2.179688 -14.523438 2.546875 -14.578125 C 2.910156 -14.640625 3.28125 -14.691406 3.65625 -14.734375 C 4.039062 -14.773438 4.425781 -14.804688 4.8125 -14.828125 C 5.195312 -14.847656 5.570312 -14.859375 5.9375 -14.859375 C 7.09375 -14.859375 8.035156 -14.726562 8.765625 -14.46875 C 9.492188 -14.207031 10.066406 -13.867188 10.484375 -13.453125 C 10.898438 -13.046875 11.1875 -12.582031 11.34375 -12.0625 C 11.5 -11.539062 11.578125 -11.007812 11.578125 -10.46875 Z M 4.359375 -7.25 C 4.554688 -7.207031 4.757812 -7.175781 4.96875 -7.15625 C 5.175781 -7.144531 5.394531 -7.140625 5.625 -7.140625 C 6.664062 -7.140625 7.457031 -7.394531 8 -7.90625 C 8.539062 -8.414062 8.8125 -9.164062 8.8125 -10.15625 C 8.8125 -11.070312 8.582031 -11.773438 8.125 -12.265625 C 7.675781 -12.753906 7.035156 -13 6.203125 -13 C 5.921875 -13 5.628906 -12.972656 5.328125 -12.921875 C 5.035156 -12.867188 4.726562 -12.800781 4.40625 -12.71875 C 4.375 -12.050781 4.359375 -11.300781 4.359375 -10.46875 C 4.359375 -9.632812 4.359375 -8.625 4.359375 -7.4375 Z M 4.359375 -7.25 "/></g></g></g><g fill="rgb(0%, 0%, 0%)" fill-opacity="1"><g transform="translate(49.181613, 20.375502)"><g><path d="M 9.796875 -6.453125 L 4.359375 -6.453125 C 4.359375 -5.578125 4.359375 -4.78125 4.359375 -4.0625 C 4.359375 -3.34375 4.367188 -2.671875 4.390625 -2.046875 L 10.84375 -2.046875 L 10.84375 0 L 1.484375 0 C 1.492188 -0.664062 1.507812 -1.253906 1.53125 -1.765625 C 1.550781 -2.273438 1.566406 -2.800781 1.578125 -3.34375 C 1.597656 -3.894531 1.613281 -4.523438 1.625 -5.234375 C 1.644531 -5.953125 1.65625 -6.847656 1.65625 -7.921875 C 1.65625 -8.992188 1.644531 -10.097656 1.625 -11.234375 C 1.613281 -12.367188 1.585938 -13.5 1.546875 -14.625 L 10.453125 -14.625 L 10.453125 -12.578125 L 4.40625 -12.578125 C 4.375 -12.035156 4.359375 -11.414062 4.359375 -10.71875 C 4.359375 -10.03125 4.359375 -9.25 4.359375 -8.375 L 9.796875 -8.375 Z M 9.796875 -6.453125 "/></g></g></g><g fill="rgb(0%, 0%, 0%)" fill-opacity="1"><g transform="translate(60.691222, 20.375502)"><g><path d="M 1.546875 -14.421875 C 2.171875 -14.523438 2.875 -14.625 3.65625 -14.71875 C 4.445312 -14.8125 5.210938 -14.859375 5.953125 -14.859375 C 7.140625 -14.859375 8.109375 -14.726562 8.859375 -14.46875 C 9.617188 -14.21875 10.210938 -13.894531 10.640625 -13.5 C 11.078125 -13.101562 11.375 -12.65625 11.53125 -12.15625 C 11.695312 -11.664062 11.78125 -11.179688 11.78125 -10.703125 C 11.78125 -9.816406 11.582031 -9.050781 11.1875 -8.40625 C 10.789062 -7.757812 10.226562 -7.25 9.5 -6.875 C 9.9375 -6.664062 10.296875 -6.425781 10.578125 -6.15625 C 10.867188 -5.882812 11.097656 -5.550781 11.265625 -5.15625 C 11.429688 -4.769531 11.546875 -4.304688 11.609375 -3.765625 C 11.671875 -3.234375 11.703125 -2.613281 11.703125 -1.90625 C 11.703125 -1.332031 11.679688 -0.695312 11.640625 0 L 8.734375 0.25 C 8.773438 -0.207031 8.804688 -0.644531 8.828125 -1.0625 C 8.859375 -1.476562 8.875 -1.875 8.875 -2.25 C 8.875 -2.863281 8.828125 -3.398438 8.734375 -3.859375 C 8.640625 -4.316406 8.460938 -4.703125 8.203125 -5.015625 C 7.953125 -5.335938 7.613281 -5.570312 7.1875 -5.71875 C 6.769531 -5.875 6.226562 -5.953125 5.5625 -5.953125 C 5.40625 -5.953125 5.222656 -5.945312 5.015625 -5.9375 C 4.804688 -5.9375 4.585938 -5.921875 4.359375 -5.890625 C 4.359375 -4.734375 4.363281 -3.6875 4.375 -2.75 C 4.382812 -1.820312 4.398438 -0.90625 4.421875 0 L 1.484375 0 C 1.515625 -0.664062 1.539062 -1.253906 1.5625 -1.765625 C 1.582031 -2.273438 1.597656 -2.800781 1.609375 -3.34375 C 1.617188 -3.894531 1.628906 -4.507812 1.640625 -5.1875 C 1.648438 -5.875 1.65625 -6.726562 1.65625 -7.75 C 1.65625 -8.914062 1.644531 -10.035156 1.625 -11.109375 C 1.613281 -12.179688 1.585938 -13.285156 1.546875 -14.421875 Z M 6.21875 -13 C 5.945312 -13 5.65625 -12.972656 5.34375 -12.921875 C 5.039062 -12.867188 4.726562 -12.800781 4.40625 -12.71875 C 4.375 -12.132812 4.359375 -11.476562 4.359375 -10.75 C 4.359375 -10.019531 4.359375 -9.140625 4.359375 -8.109375 L 4.359375 -7.828125 C 4.753906 -7.742188 5.207031 -7.703125 5.71875 -7.703125 C 6.769531 -7.703125 7.582031 -7.925781 8.15625 -8.375 C 8.738281 -8.832031 9.03125 -9.5 9.03125 -10.375 C 9.03125 -11.1875 8.78125 -11.828125 8.28125 -12.296875 C 7.789062 -12.765625 7.101562 -13 6.21875 -13 Z M 6.21875 -13 "/></g></g></g><g fill="rgb(0%, 0%, 0%)" fill-opacity="1"><g transform="translate(73.475041, 20.375502)"><g><path d="M 5.65625 -2.125 C 6.539062 -2.125 7.191406 -2.273438 7.609375 -2.578125 C 8.035156 -2.890625 8.25 -3.335938 8.25 -3.921875 C 8.25 -4.285156 8.171875 -4.59375 8.015625 -4.84375 C 7.867188 -5.09375 7.664062 -5.304688 7.40625 -5.484375 C 7.144531 -5.671875 6.84375 -5.828125 6.5 -5.953125 C 6.164062 -6.085938 5.816406 -6.21875 5.453125 -6.34375 C 4.785156 -6.570312 4.179688 -6.796875 3.640625 -7.015625 C 3.109375 -7.242188 2.648438 -7.503906 2.265625 -7.796875 C 1.878906 -8.097656 1.582031 -8.46875 1.375 -8.90625 C 1.164062 -9.34375 1.0625 -9.890625 1.0625 -10.546875 C 1.0625 -11.453125 1.242188 -12.1875 1.609375 -12.75 C 1.984375 -13.3125 2.445312 -13.75 3 -14.0625 C 3.5625 -14.382812 4.171875 -14.597656 4.828125 -14.703125 C 5.492188 -14.804688 6.113281 -14.859375 6.6875 -14.859375 C 7.40625 -14.859375 8.085938 -14.800781 8.734375 -14.6875 C 9.390625 -14.570312 9.960938 -14.460938 10.453125 -14.359375 L 10.453125 -11.921875 C 9.773438 -12.117188 9.082031 -12.28125 8.375 -12.40625 C 7.664062 -12.53125 7.019531 -12.59375 6.4375 -12.59375 C 5.4375 -12.59375 4.703125 -12.414062 4.234375 -12.0625 C 3.773438 -11.707031 3.546875 -11.28125 3.546875 -10.78125 C 3.546875 -10.40625 3.65625 -10.09375 3.875 -9.84375 C 4.09375 -9.59375 4.359375 -9.375 4.671875 -9.1875 C 4.984375 -9.007812 5.316406 -8.867188 5.671875 -8.765625 C 6.023438 -8.660156 6.347656 -8.566406 6.640625 -8.484375 C 7.140625 -8.335938 7.640625 -8.164062 8.140625 -7.96875 C 8.648438 -7.769531 9.109375 -7.503906 9.515625 -7.171875 C 9.921875 -6.835938 10.25 -6.421875 10.5 -5.921875 C 10.757812 -5.429688 10.890625 -4.820312 10.890625 -4.09375 C 10.890625 -3.375 10.757812 -2.738281 10.5 -2.1875 C 10.238281 -1.644531 9.875 -1.191406 9.40625 -0.828125 C 8.945312 -0.472656 8.394531 -0.203125 7.75 -0.015625 C 7.113281 0.160156 6.410156 0.25 5.640625 0.25 C 4.972656 0.25 4.222656 0.175781 3.390625 0.03125 C 2.566406 -0.101562 1.757812 -0.316406 0.96875 -0.609375 L 0.875 -3.171875 C 1.125 -3.046875 1.4375 -2.921875 1.8125 -2.796875 C 2.1875 -2.679688 2.59375 -2.570312 3.03125 -2.46875 C 3.476562 -2.363281 3.925781 -2.28125 4.375 -2.21875 C 4.832031 -2.15625 5.257812 -2.125 5.65625 -2.125 Z M 5.65625 -2.125 "/></g></g></g><g fill="rgb(0%, 0%, 0%)" fill-opacity="1"><g transform="translate(85.151764, 20.375502)"><g><path d="M 7.203125 -13 C 6.117188 -13 5.257812 -12.503906 4.625 -11.515625 C 3.988281 -10.523438 3.671875 -9.101562 3.671875 -7.25 C 3.671875 -5.40625 3.9375 -4 4.46875 -3.03125 C 5.007812 -2.070312 5.890625 -1.59375 7.109375 -1.59375 C 7.628906 -1.59375 8.109375 -1.726562 8.546875 -2 C 8.992188 -2.269531 9.375 -2.660156 9.6875 -3.171875 C 10 -3.691406 10.238281 -4.3125 10.40625 -5.03125 C 10.582031 -5.757812 10.671875 -6.582031 10.671875 -7.5 C 10.671875 -8.375 10.617188 -9.148438 10.515625 -9.828125 C 10.410156 -10.515625 10.222656 -11.09375 9.953125 -11.5625 C 9.691406 -12.03125 9.335938 -12.382812 8.890625 -12.625 C 8.453125 -12.875 7.890625 -13 7.203125 -13 Z M 0.8125 -7.1875 C 0.8125 -8.3125 0.960938 -9.347656 1.265625 -10.296875 C 1.578125 -11.242188 2.019531 -12.054688 2.59375 -12.734375 C 3.175781 -13.410156 3.867188 -13.9375 4.671875 -14.3125 C 5.484375 -14.6875 6.390625 -14.875 7.390625 -14.875 C 8.359375 -14.875 9.21875 -14.703125 9.96875 -14.359375 C 10.726562 -14.015625 11.367188 -13.53125 11.890625 -12.90625 C 12.421875 -12.28125 12.820312 -11.519531 13.09375 -10.625 C 13.375 -9.738281 13.515625 -8.753906 13.515625 -7.671875 C 13.515625 -6.523438 13.359375 -5.46875 13.046875 -4.5 C 12.734375 -3.53125 12.289062 -2.691406 11.71875 -1.984375 C 11.144531 -1.285156 10.453125 -0.738281 9.640625 -0.34375 C 8.835938 0.0507812 7.941406 0.25 6.953125 0.25 C 5.992188 0.25 5.132812 0.0664062 4.375 -0.296875 C 3.613281 -0.671875 2.96875 -1.1875 2.4375 -1.84375 C 1.914062 -2.507812 1.515625 -3.296875 1.234375 -4.203125 C 0.953125 -5.109375 0.8125 -6.101562 0.8125 -7.1875 Z M 0.8125 -7.1875 "/></g></g></g><g fill="rgb(0%, 0%, 0%)" fill-opacity="1"><g transform="translate(99.481339, 20.375502)"><g><path d="M 13.5 -14.625 C 13.457031 -14.175781 13.425781 -13.71875 13.40625 -13.25 C 13.382812 -12.789062 13.367188 -12.273438 13.359375 -11.703125 C 13.347656 -11.140625 13.335938 -10.507812 13.328125 -9.8125 C 13.328125 -9.125 13.328125 -8.332031 13.328125 -7.4375 C 13.328125 -6.601562 13.328125 -5.847656 13.328125 -5.171875 C 13.328125 -4.492188 13.328125 -3.863281 13.328125 -3.28125 C 13.335938 -2.695312 13.347656 -2.140625 13.359375 -1.609375 C 13.367188 -1.078125 13.378906 -0.539062 13.390625 0 L 9.1875 0.25 C 8.257812 -1.613281 7.359375 -3.597656 6.484375 -5.703125 C 5.617188 -7.816406 4.847656 -9.953125 4.171875 -12.109375 C 4.171875 -11.847656 4.164062 -11.53125 4.15625 -11.15625 C 4.15625 -10.789062 4.15625 -10.398438 4.15625 -9.984375 C 4.15625 -9.566406 4.15625 -9.140625 4.15625 -8.703125 C 4.15625 -8.265625 4.15625 -7.84375 4.15625 -7.4375 C 4.15625 -6.601562 4.160156 -5.847656 4.171875 -5.171875 C 4.191406 -4.492188 4.207031 -3.863281 4.21875 -3.28125 C 4.226562 -2.695312 4.242188 -2.140625 4.265625 -1.609375 C 4.285156 -1.078125 4.304688 -0.539062 4.328125 0 L 1.484375 0 C 1.492188 -0.664062 1.507812 -1.253906 1.53125 -1.765625 C 1.550781 -2.273438 1.566406 -2.800781 1.578125 -3.34375 C 1.597656 -3.894531 1.613281 -4.523438 1.625 -5.234375 C 1.644531 -5.953125 1.65625 -6.847656 1.65625 -7.921875 C 1.65625 -8.992188 1.644531 -10.0625 1.625 -11.125 C 1.613281 -12.1875 1.585938 -13.285156 1.546875 -14.421875 L 6.15625 -14.875 C 6.59375 -13.050781 7.179688 -11.050781 7.921875 -8.875 C 8.671875 -6.707031 9.609375 -4.367188 10.734375 -1.859375 C 10.765625 -2.523438 10.785156 -3.359375 10.796875 -4.359375 C 10.816406 -5.367188 10.828125 -6.554688 10.828125 -7.921875 C 10.828125 -8.992188 10.800781 -10.0625 10.75 -11.125 C 10.695312 -12.1875 10.648438 -13.285156 10.609375 -14.421875 Z M 13.5 -14.625 "/></g></g></g><g fill="rgb(0%, 0%, 0%)" fill-opacity="1"><g transform="translate(114.437567, 20.375502)"><g><path d="M 0.25 0.25 C 0.625 -1.15625 1.003906 -2.5 1.390625 -3.78125 C 1.773438 -5.070312 2.175781 -6.320312 2.59375 -7.53125 C 3.007812 -8.75 3.457031 -9.941406 3.9375 -11.109375 C 4.414062 -12.285156 4.9375 -13.457031 5.5 -14.625 L 8.109375 -14.875 C 8.660156 -13.71875 9.171875 -12.5625 9.640625 -11.40625 C 10.117188 -10.25 10.570312 -9.0625 11 -7.84375 C 11.425781 -6.625 11.828125 -5.363281 12.203125 -4.0625 C 12.585938 -2.769531 12.96875 -1.414062 13.34375 0 L 10.515625 0.25 C 10.316406 -0.488281 10.117188 -1.226562 9.921875 -1.96875 C 9.722656 -2.71875 9.53125 -3.46875 9.34375 -4.21875 L 4.171875 -4.21875 C 3.984375 -3.539062 3.796875 -2.851562 3.609375 -2.15625 C 3.429688 -1.457031 3.265625 -0.738281 3.109375 0 Z M 6.8125 -12.265625 C 6 -10.285156 5.296875 -8.242188 4.703125 -6.140625 L 8.8125 -6.140625 C 8.507812 -7.179688 8.191406 -8.21875 7.859375 -9.25 C 7.535156 -10.28125 7.1875 -11.285156 6.8125 -12.265625 Z M 6.8125 -12.265625 "/></g></g></g><g fill="rgb(0%, 0%, 0%)" fill-opacity="1"><g transform="translate(128.056925, 20.375502)"><g><path d="M 9.84375 0 L 1.484375 0 C 1.492188 -0.664062 1.507812 -1.253906 1.53125 -1.765625 C 1.550781 -2.273438 1.566406 -2.800781 1.578125 -3.34375 C 1.597656 -3.894531 1.613281 -4.523438 1.625 -5.234375 C 1.644531 -5.953125 1.65625 -6.847656 1.65625 -7.921875 C 1.65625 -8.992188 1.644531 -10.0625 1.625 -11.125 C 1.613281 -12.1875 1.585938 -13.285156 1.546875 -14.421875 L 4.53125 -14.625 C 4.488281 -14.175781 4.457031 -13.71875 4.4375 -13.25 C 4.414062 -12.789062 4.398438 -12.273438 4.390625 -11.703125 C 4.390625 -11.140625 4.382812 -10.507812 4.375 -9.8125 C 4.363281 -9.125 4.359375 -8.332031 4.359375 -7.4375 C 4.359375 -6.289062 4.359375 -5.289062 4.359375 -4.4375 C 4.359375 -3.59375 4.367188 -2.796875 4.390625 -2.046875 L 9.84375 -2.046875 Z M 9.84375 0 "/></g></g></g><g fill="rgb(0%, 0%, 0%)" fill-opacity="1"><g transform="translate(138.125221, 20.375502)"><g/></g></g><g fill="rgb(0%, 0%, 0%)" fill-opacity="1"><g transform="translate(142.553604, 20.375502)"><g><path d="M 1.546875 -14.421875 C 1.835938 -14.472656 2.15625 -14.523438 2.5 -14.578125 C 2.851562 -14.640625 3.210938 -14.691406 3.578125 -14.734375 C 3.953125 -14.773438 4.328125 -14.804688 4.703125 -14.828125 C 5.078125 -14.847656 5.4375 -14.859375 5.78125 -14.859375 C 6.832031 -14.859375 7.695312 -14.75 8.375 -14.53125 C 9.0625 -14.3125 9.601562 -14.03125 10 -13.6875 C 10.394531 -13.351562 10.664062 -12.972656 10.8125 -12.546875 C 10.96875 -12.117188 11.046875 -11.695312 11.046875 -11.28125 C 11.046875 -10.90625 10.988281 -10.53125 10.875 -10.15625 C 10.769531 -9.78125 10.597656 -9.429688 10.359375 -9.109375 C 10.117188 -8.785156 9.8125 -8.507812 9.4375 -8.28125 C 9.0625 -8.050781 8.617188 -7.894531 8.109375 -7.8125 C 8.742188 -7.757812 9.296875 -7.617188 9.765625 -7.390625 C 10.234375 -7.171875 10.617188 -6.894531 10.921875 -6.5625 C 11.234375 -6.226562 11.457031 -5.851562 11.59375 -5.4375 C 11.726562 -5.019531 11.796875 -4.578125 11.796875 -4.109375 C 11.796875 -3.554688 11.6875 -3.019531 11.46875 -2.5 C 11.257812 -1.976562 10.894531 -1.515625 10.375 -1.109375 C 9.863281 -0.703125 9.179688 -0.375 8.328125 -0.125 C 7.472656 0.113281 6.410156 0.234375 5.140625 0.234375 C 4.890625 0.234375 4.609375 0.226562 4.296875 0.21875 C 3.984375 0.207031 3.660156 0.191406 3.328125 0.171875 C 3.003906 0.148438 2.679688 0.125 2.359375 0.09375 C 2.035156 0.0703125 1.742188 0.0390625 1.484375 0 C 1.515625 -0.664062 1.539062 -1.25 1.5625 -1.75 C 1.582031 -2.25 1.597656 -2.78125 1.609375 -3.34375 C 1.617188 -3.914062 1.628906 -4.554688 1.640625 -5.265625 C 1.648438 -5.984375 1.65625 -6.898438 1.65625 -8.015625 C 1.65625 -9.023438 1.644531 -10.0625 1.625 -11.125 C 1.613281 -12.1875 1.585938 -13.285156 1.546875 -14.421875 Z M 4.359375 -6.703125 C 4.359375 -5.703125 4.359375 -4.800781 4.359375 -4 C 4.359375 -3.195312 4.367188 -2.441406 4.390625 -1.734375 C 4.648438 -1.648438 4.914062 -1.582031 5.1875 -1.53125 C 5.457031 -1.488281 5.734375 -1.46875 6.015625 -1.46875 C 6.890625 -1.46875 7.601562 -1.722656 8.15625 -2.234375 C 8.707031 -2.753906 8.984375 -3.476562 8.984375 -4.40625 C 8.984375 -4.769531 8.929688 -5.101562 8.828125 -5.40625 C 8.722656 -5.71875 8.554688 -5.984375 8.328125 -6.203125 C 8.097656 -6.421875 7.800781 -6.59375 7.4375 -6.71875 C 7.070312 -6.851562 6.625 -6.921875 6.09375 -6.921875 C 5.550781 -6.921875 4.972656 -6.847656 4.359375 -6.703125 Z M 4.40625 -12.75 C 4.375 -12.175781 4.359375 -11.539062 4.359375 -10.84375 C 4.359375 -10.15625 4.359375 -9.351562 4.359375 -8.4375 C 4.566406 -8.40625 4.765625 -8.382812 4.953125 -8.375 C 5.148438 -8.363281 5.335938 -8.359375 5.515625 -8.359375 C 6.546875 -8.359375 7.289062 -8.570312 7.75 -9 C 8.207031 -9.4375 8.4375 -10.015625 8.4375 -10.734375 C 8.4375 -11.023438 8.394531 -11.304688 8.3125 -11.578125 C 8.238281 -11.847656 8.113281 -12.085938 7.9375 -12.296875 C 7.757812 -12.515625 7.519531 -12.6875 7.21875 -12.8125 C 6.914062 -12.9375 6.535156 -13 6.078125 -13 C 5.796875 -13 5.519531 -12.972656 5.25 -12.921875 C 4.976562 -12.867188 4.695312 -12.8125 4.40625 -12.75 Z M 4.40625 -12.75 "/></g></g></g><g fill="rgb(0%, 0%, 0%)" fill-opacity="1"><g transform="translate(155.003206, 20.375502)"><g><path d="M 4.203125 -5.125 C 4.203125 -4.519531 4.28125 -4.003906 4.4375 -3.578125 C 4.59375 -3.160156 4.804688 -2.8125 5.078125 -2.53125 C 5.359375 -2.257812 5.671875 -2.0625 6.015625 -1.9375 C 6.359375 -1.8125 6.710938 -1.75 7.078125 -1.75 C 7.390625 -1.75 7.707031 -1.8125 8.03125 -1.9375 C 8.351562 -2.0625 8.65625 -2.257812 8.9375 -2.53125 C 9.21875 -2.8125 9.445312 -3.160156 9.625 -3.578125 C 9.8125 -3.992188 9.910156 -4.492188 9.921875 -5.078125 C 9.929688 -5.492188 9.941406 -5.953125 9.953125 -6.453125 C 9.960938 -6.953125 9.96875 -7.597656 9.96875 -8.390625 C 9.96875 -9.398438 9.957031 -10.394531 9.9375 -11.375 C 9.925781 -12.351562 9.898438 -13.367188 9.859375 -14.421875 L 12.84375 -14.625 C 12.800781 -14.207031 12.769531 -13.78125 12.75 -13.34375 C 12.726562 -12.90625 12.710938 -12.421875 12.703125 -11.890625 C 12.703125 -11.367188 12.695312 -10.785156 12.6875 -10.140625 C 12.6875 -9.492188 12.6875 -8.753906 12.6875 -7.921875 L 12.6875 -5.203125 C 12.6875 -4.335938 12.523438 -3.566406 12.203125 -2.890625 C 11.890625 -2.210938 11.472656 -1.640625 10.953125 -1.171875 C 10.429688 -0.710938 9.820312 -0.359375 9.125 -0.109375 C 8.425781 0.128906 7.695312 0.25 6.9375 0.25 C 6.164062 0.25 5.445312 0.125 4.78125 -0.125 C 4.113281 -0.375 3.53125 -0.734375 3.03125 -1.203125 C 2.539062 -1.671875 2.148438 -2.238281 1.859375 -2.90625 C 1.578125 -3.582031 1.4375 -4.347656 1.4375 -5.203125 C 1.4375 -5.609375 1.441406 -6.0625 1.453125 -6.5625 C 1.472656 -7.070312 1.484375 -7.679688 1.484375 -8.390625 C 1.484375 -9.398438 1.472656 -10.394531 1.453125 -11.375 C 1.441406 -12.351562 1.414062 -13.367188 1.375 -14.421875 L 4.359375 -14.625 C 4.316406 -14.207031 4.285156 -13.78125 4.265625 -13.34375 C 4.242188 -12.90625 4.226562 -12.421875 4.21875 -11.890625 C 4.207031 -11.367188 4.203125 -10.785156 4.203125 -10.140625 C 4.203125 -9.492188 4.203125 -8.753906 4.203125 -7.921875 Z M 4.203125 -5.125 "/></g></g></g><g fill="rgb(0%, 0%, 0%)" fill-opacity="1"><g transform="translate(169.165668, 20.375502)"><g><path d="M 1.546875 -14.421875 C 2.097656 -14.523438 2.78125 -14.625 3.59375 -14.71875 C 4.414062 -14.820312 5.3125 -14.875 6.28125 -14.875 C 7.382812 -14.875 8.363281 -14.703125 9.21875 -14.359375 C 10.082031 -14.015625 10.8125 -13.53125 11.40625 -12.90625 C 12 -12.28125 12.453125 -11.519531 12.765625 -10.625 C 13.085938 -9.738281 13.25 -8.753906 13.25 -7.671875 C 13.25 -6.523438 13.066406 -5.46875 12.703125 -4.5 C 12.347656 -3.53125 11.847656 -2.691406 11.203125 -1.984375 C 10.554688 -1.285156 9.78125 -0.738281 8.875 -0.34375 C 7.96875 0.0507812 6.957031 0.25 5.84375 0.25 C 4.882812 0.25 4.03125 0.222656 3.28125 0.171875 C 2.539062 0.128906 1.941406 0.0703125 1.484375 0 C 1.492188 -0.664062 1.507812 -1.253906 1.53125 -1.765625 C 1.550781 -2.273438 1.566406 -2.800781 1.578125 -3.34375 C 1.597656 -3.894531 1.613281 -4.523438 1.625 -5.234375 C 1.644531 -5.953125 1.65625 -6.847656 1.65625 -7.921875 C 1.65625 -8.992188 1.644531 -10.0625 1.625 -11.125 C 1.613281 -12.1875 1.585938 -13.285156 1.546875 -14.421875 Z M 6 -13 C 5.757812 -13 5.503906 -12.972656 5.234375 -12.921875 C 4.960938 -12.867188 4.6875 -12.8125 4.40625 -12.75 C 4.375 -12.070312 4.359375 -11.316406 4.359375 -10.484375 C 4.359375 -9.648438 4.359375 -8.632812 4.359375 -7.4375 C 4.359375 -6.195312 4.359375 -5.125 4.359375 -4.21875 C 4.359375 -3.3125 4.367188 -2.460938 4.390625 -1.671875 C 4.679688 -1.535156 5 -1.46875 5.34375 -1.46875 C 6.050781 -1.46875 6.710938 -1.578125 7.328125 -1.796875 C 7.953125 -2.015625 8.492188 -2.367188 8.953125 -2.859375 C 9.421875 -3.347656 9.785156 -3.972656 10.046875 -4.734375 C 10.316406 -5.492188 10.453125 -6.414062 10.453125 -7.5 C 10.453125 -8.5625 10.347656 -9.441406 10.140625 -10.140625 C 9.941406 -10.847656 9.644531 -11.410156 9.25 -11.828125 C 8.863281 -12.253906 8.394531 -12.554688 7.84375 -12.734375 C 7.289062 -12.910156 6.675781 -13 6 -13 Z M 6 -13 "/></g></g></g><g fill="rgb(0%, 0%, 0%)" fill-opacity="1"><g transform="translate(183.181913, 20.375502)"><g><path d="M 12.828125 -6.734375 C 12.785156 -6.535156 12.753906 -6.332031 12.734375 -6.125 C 12.710938 -5.914062 12.695312 -5.6875 12.6875 -5.4375 C 12.6875 -5.195312 12.679688 -4.921875 12.671875 -4.609375 C 12.660156 -4.304688 12.65625 -3.960938 12.65625 -3.578125 C 12.65625 -2.765625 12.660156 -2.09375 12.671875 -1.5625 C 12.679688 -1.03125 12.695312 -0.507812 12.71875 0 L 11.765625 0.25 L 11.015625 -1 C 10.453125 -0.632812 9.773438 -0.332031 8.984375 -0.09375 C 8.191406 0.132812 7.390625 0.25 6.578125 0.25 C 5.835938 0.25 5.125 0.160156 4.4375 -0.015625 C 3.75 -0.203125 3.140625 -0.546875 2.609375 -1.046875 C 2.078125 -1.554688 1.648438 -2.265625 1.328125 -3.171875 C 1.015625 -4.078125 0.859375 -5.253906 0.859375 -6.703125 C 0.859375 -9.460938 1.4375 -11.515625 2.59375 -12.859375 C 3.75 -14.203125 5.40625 -14.875 7.5625 -14.875 C 7.894531 -14.875 8.203125 -14.859375 8.484375 -14.828125 C 8.765625 -14.804688 9.019531 -14.78125 9.25 -14.75 C 9.488281 -14.71875 9.71875 -14.6875 9.9375 -14.65625 C 10.164062 -14.632812 10.390625 -14.625 10.609375 -14.625 C 10.835938 -14.625 11.066406 -14.640625 11.296875 -14.671875 C 11.535156 -14.710938 11.796875 -14.773438 12.078125 -14.859375 L 12.296875 -10.046875 L 9.984375 -9.78125 C 9.992188 -9.875 10 -9.960938 10 -10.046875 C 10 -10.140625 10 -10.238281 10 -10.34375 C 10 -10.707031 9.960938 -11.054688 9.890625 -11.390625 C 9.828125 -11.722656 9.703125 -12.015625 9.515625 -12.265625 C 9.335938 -12.523438 9.085938 -12.734375 8.765625 -12.890625 C 8.453125 -13.046875 8.050781 -13.125 7.5625 -13.125 C 4.914062 -13.125 3.59375 -11.179688 3.59375 -7.296875 C 3.59375 -6.359375 3.671875 -5.5625 3.828125 -4.90625 C 3.992188 -4.25 4.234375 -3.710938 4.546875 -3.296875 C 4.859375 -2.878906 5.242188 -2.570312 5.703125 -2.375 C 6.171875 -2.1875 6.707031 -2.09375 7.3125 -2.09375 C 7.8125 -2.09375 8.285156 -2.160156 8.734375 -2.296875 C 9.191406 -2.429688 9.644531 -2.617188 10.09375 -2.859375 L 10.09375 -4.953125 L 7.546875 -4.828125 L 7.359375 -6.734375 Z M 12.828125 -6.734375 "/></g></g></g><g fill="rgb(0%, 0%, 0%)" fill-opacity="1"><g transform="translate(196.905714, 20.375502)"><g><path d="M 9.796875 -6.453125 L 4.359375 -6.453125 C 4.359375 -5.578125 4.359375 -4.78125 4.359375 -4.0625 C 4.359375 -3.34375 4.367188 -2.671875 4.390625 -2.046875 L 10.84375 -2.046875 L 10.84375 0 L 1.484375 0 C 1.492188 -0.664062 1.507812 -1.253906 1.53125 -1.765625 C 1.550781 -2.273438 1.566406 -2.800781 1.578125 -3.34375 C 1.597656 -3.894531 1.613281 -4.523438 1.625 -5.234375 C 1.644531 -5.953125 1.65625 -6.847656 1.65625 -7.921875 C 1.65625 -8.992188 1.644531 -10.097656 1.625 -11.234375 C 1.613281 -12.367188 1.585938 -13.5 1.546875 -14.625 L 10.453125 -14.625 L 10.453125 -12.578125 L 4.40625 -12.578125 C 4.375 -12.035156 4.359375 -11.414062 4.359375 -10.71875 C 4.359375 -10.03125 4.359375 -9.25 4.359375 -8.375 L 9.796875 -8.375 Z M 9.796875 -6.453125 "/></g></g></g><g fill="rgb(0%, 0%, 0%)" fill-opacity="1"><g transform="translate(208.415314, 20.375502)"><g><path d="M 11.28125 -12.578125 L 7.140625 -12.578125 C 7.117188 -11.921875 7.109375 -11.1875 7.109375 -10.375 C 7.109375 -9.5625 7.109375 -8.582031 7.109375 -7.4375 C 7.109375 -6.601562 7.109375 -5.847656 7.109375 -5.171875 C 7.109375 -4.492188 7.109375 -3.863281 7.109375 -3.28125 C 7.117188 -2.695312 7.125 -2.140625 7.125 -1.609375 C 7.132812 -1.078125 7.148438 -0.539062 7.171875 0 L 4.21875 0 C 4.226562 -0.664062 4.242188 -1.253906 4.265625 -1.765625 C 4.285156 -2.273438 4.300781 -2.800781 4.3125 -3.34375 C 4.332031 -3.894531 4.347656 -4.523438 4.359375 -5.234375 C 4.378906 -5.953125 4.390625 -6.847656 4.390625 -7.921875 C 4.390625 -8.703125 4.390625 -9.472656 4.390625 -10.234375 C 4.390625 -11.003906 4.375 -11.785156 4.34375 -12.578125 L 0.203125 -12.578125 L 0.203125 -14.625 L 11.28125 -14.625 Z M 11.28125 -12.578125 "/></g></g></g><g fill="rgb(0%, 0%, 0%)" fill-opacity="1"><g transform="translate(165.139738, 32.950892)"><g><path d="M 1.34375 -2.59375 C 1.5625 -2.832031 1.894531 -2.953125 2.34375 -2.953125 C 2.488281 -2.953125 2.640625 -2.921875 2.796875 -2.859375 C 2.960938 -2.804688 3.109375 -2.71875 3.234375 -2.59375 C 3.492188 -2.320312 3.625 -1.945312 3.625 -1.46875 C 3.625 -0.988281 3.488281 -0.613281 3.21875 -0.34375 C 2.945312 -0.0703125 2.613281 0.0625 2.21875 0.0625 C 1.957031 0.0625 1.722656 0.0078125 1.515625 -0.09375 C 1.441406 -0.125 1.382812 -0.160156 1.34375 -0.203125 L 1.34375 0 L 0.171875 0 L 0.171875 -0.21875 L 0.59375 -0.21875 L 0.59375 -4.546875 L 0.171875 -4.546875 L 0.171875 -4.78125 L 1.34375 -4.78125 Z M 2.09375 -0.1875 C 2.582031 -0.1875 2.828125 -0.601562 2.828125 -1.4375 C 2.828125 -2.050781 2.695312 -2.441406 2.4375 -2.609375 C 2.34375 -2.660156 2.222656 -2.6875 2.078125 -2.6875 C 1.929688 -2.6875 1.789062 -2.644531 1.65625 -2.5625 C 1.53125 -2.488281 1.425781 -2.382812 1.34375 -2.25 L 1.34375 -0.515625 C 1.476562 -0.359375 1.660156 -0.253906 1.890625 -0.203125 C 1.960938 -0.191406 2.03125 -0.1875 2.09375 -0.1875 Z M 2.09375 -0.1875 "/></g></g></g><g fill="rgb(0%, 0%, 0%)" fill-opacity="1"><g transform="translate(169.014451, 32.950892)"><g><path d="M 0.265625 0.90625 C 0.316406 0.851562 0.363281 0.816406 0.40625 0.796875 C 0.457031 0.785156 0.523438 0.78125 0.609375 0.78125 C 0.703125 0.78125 0.78125 0.8125 0.84375 0.875 C 0.90625 0.9375 0.9375 1.007812 0.9375 1.09375 C 0.9375 1.175781 0.910156 1.25 0.859375 1.3125 C 0.929688 1.300781 1.003906 1.242188 1.078125 1.140625 C 1.148438 1.046875 1.238281 0.894531 1.34375 0.6875 L 1.609375 0.0625 L 0.296875 -2.6875 L -0.015625 -2.6875 L -0.015625 -2.90625 L 1.515625 -2.90625 L 1.515625 -2.6875 L 1.125 -2.6875 L 1.984375 -0.734375 L 2.75 -2.6875 L 2.25 -2.6875 L 2.25 -2.90625 L 3.3125 -2.90625 L 3.3125 -2.6875 L 3.03125 -2.6875 L 1.90625 0.0625 L 1.5625 0.828125 C 1.425781 1.097656 1.3125 1.273438 1.21875 1.359375 C 1.125 1.453125 1.035156 1.515625 0.953125 1.546875 C 0.878906 1.578125 0.804688 1.59375 0.734375 1.59375 C 0.578125 1.59375 0.445312 1.550781 0.34375 1.46875 C 0.238281 1.382812 0.1875 1.28125 0.1875 1.15625 C 0.1875 1.039062 0.210938 0.957031 0.265625 0.90625 Z M 0.265625 0.90625 "/></g></g></g><g fill="rgb(0%, 0%, 0%)" fill-opacity="1"><g transform="translate(172.406601, 32.950892)"><g/></g></g><g fill="rgb(0%, 0%, 0%)" fill-opacity="1"><g transform="translate(174.342537, 32.950892)"><g><path d="M 0.0625 -0.21875 L 0.359375 -0.21875 L 1.96875 -4.34375 L 2.296875 -4.34375 L 4 -0.21875 L 4.296875 -0.21875 L 4.296875 0 L 2.75 0 L 2.75 -0.21875 L 3.171875 -0.21875 L 2.765625 -1.21875 L 1.046875 -1.21875 L 0.671875 -0.21875 L 1.1875 -0.21875 L 1.1875 0 L 0.0625 0 Z M 2.671875 -1.4375 L 1.875 -3.390625 L 1.125 -1.4375 Z M 2.671875 -1.4375 "/></g></g></g><g fill="rgb(0%, 0%, 0%)" fill-opacity="1"><g transform="translate(178.696974, 32.950892)"><g><path d="M 1.40625 -2.515625 C 1.71875 -2.804688 2.050781 -2.953125 2.40625 -2.953125 C 2.519531 -2.953125 2.617188 -2.910156 2.703125 -2.828125 C 2.785156 -2.753906 2.828125 -2.660156 2.828125 -2.546875 C 2.828125 -2.429688 2.789062 -2.335938 2.71875 -2.265625 C 2.644531 -2.191406 2.554688 -2.15625 2.453125 -2.15625 C 2.347656 -2.15625 2.257812 -2.1875 2.1875 -2.25 C 2.113281 -2.320312 2.078125 -2.414062 2.078125 -2.53125 C 2.078125 -2.570312 2.082031 -2.613281 2.09375 -2.65625 C 1.820312 -2.570312 1.59375 -2.429688 1.40625 -2.234375 L 1.40625 -0.21875 L 2.03125 -0.21875 L 2.03125 0 L 0.25 0 L 0.25 -0.21875 L 0.671875 -0.21875 L 0.671875 -2.6875 L 0.25 -2.6875 L 0.25 -2.90625 L 1.40625 -2.90625 Z M 1.40625 -2.515625 "/></g></g></g><g fill="rgb(0%, 0%, 0%)" fill-opacity="1"><g transform="translate(181.603717, 32.950892)"><g><path d="M 1.515625 0.0625 C 0.835938 0.0625 0.5 -0.253906 0.5 -0.890625 L 0.5 -2.6875 L 0.15625 -2.6875 L 0.15625 -2.90625 L 0.5 -2.90625 L 0.5 -3.765625 C 0.675781 -3.765625 0.890625 -3.8125 1.140625 -3.90625 C 1.191406 -3.925781 1.226562 -3.941406 1.25 -3.953125 L 1.25 -2.90625 L 2.1875 -2.90625 L 2.1875 -2.6875 L 1.25 -2.6875 L 1.25 -0.6875 C 1.25 -0.507812 1.285156 -0.378906 1.359375 -0.296875 C 1.429688 -0.222656 1.53125 -0.1875 1.65625 -0.1875 C 1.84375 -0.1875 2.015625 -0.269531 2.171875 -0.4375 L 2.3125 -0.3125 C 2.175781 -0.144531 1.992188 -0.03125 1.765625 0.03125 C 1.679688 0.0507812 1.597656 0.0625 1.515625 0.0625 Z M 1.515625 0.0625 "/></g></g></g><g fill="rgb(0%, 0%, 0%)" fill-opacity="1"><g transform="translate(184.02506, 32.950892)"><g><path d="M 2.515625 -0.28125 C 2.265625 -0.0507812 1.992188 0.0625 1.703125 0.0625 C 1.410156 0.0625 1.164062 0 0.96875 -0.125 C 0.6875 -0.28125 0.546875 -0.550781 0.546875 -0.9375 L 0.546875 -2.6875 L 0.140625 -2.6875 L 0.140625 -2.90625 L 1.28125 -2.90625 L 1.28125 -0.8125 C 1.28125 -0.414062 1.460938 -0.21875 1.828125 -0.21875 C 2.085938 -0.21875 2.316406 -0.332031 2.515625 -0.5625 L 2.515625 -2.6875 L 2.03125 -2.6875 L 2.03125 -2.90625 L 3.25 -2.90625 L 3.25 -0.21875 L 3.625 -0.21875 L 3.625 0 L 2.515625 0 Z M 2.515625 -0.28125 "/></g></g></g><g fill="rgb(0%, 0%, 0%)" fill-opacity="1"><g transform="translate(187.90261, 32.950892)"><g><path d="M 1.40625 -2.515625 C 1.71875 -2.804688 2.050781 -2.953125 2.40625 -2.953125 C 2.519531 -2.953125 2.617188 -2.910156 2.703125 -2.828125 C 2.785156 -2.753906 2.828125 -2.660156 2.828125 -2.546875 C 2.828125 -2.429688 2.789062 -2.335938 2.71875 -2.265625 C 2.644531 -2.191406 2.554688 -2.15625 2.453125 -2.15625 C 2.347656 -2.15625 2.257812 -2.1875 2.1875 -2.25 C 2.113281 -2.320312 2.078125 -2.414062 2.078125 -2.53125 C 2.078125 -2.570312 2.082031 -2.613281 2.09375 -2.65625 C 1.820312 -2.570312 1.59375 -2.429688 1.40625 -2.234375 L 1.40625 -0.21875 L 2.03125 -0.21875 L 2.03125 0 L 0.25 0 L 0.25 -0.21875 L 0.671875 -0.21875 L 0.671875 -2.6875 L 0.25 -2.6875 L 0.25 -2.90625 L 1.40625 -2.90625 Z M 1.40625 -2.515625 "/></g></g></g><g fill="rgb(0%, 0%, 0%)" fill-opacity="1"><g transform="translate(190.809353, 32.950892)"><g/></g></g><g fill="rgb(0%, 0%, 0%)" fill-opacity="1"><g transform="translate(192.745289, 32.950892)"><g><path d="M 0.140625 -0.21875 L 0.625 -0.21875 L 0.640625 -4.125 L 0.140625 -4.125 L 0.140625 -4.34375 L 1.984375 -4.34375 C 2.578125 -4.34375 3.007812 -4.222656 3.28125 -3.984375 C 3.550781 -3.742188 3.6875 -3.398438 3.6875 -2.953125 C 3.6875 -2.503906 3.539062 -2.140625 3.25 -1.859375 C 2.96875 -1.585938 2.550781 -1.453125 2 -1.453125 L 1.390625 -1.453125 L 1.390625 -0.21875 L 2.109375 -0.21875 L 2.109375 0 L 0.140625 0 Z M 1.9375 -1.65625 C 2.382812 -1.65625 2.675781 -1.898438 2.8125 -2.390625 C 2.863281 -2.566406 2.890625 -2.75 2.890625 -2.9375 C 2.890625 -3.3125 2.816406 -3.597656 2.671875 -3.796875 C 2.503906 -4.015625 2.257812 -4.125 1.9375 -4.125 L 1.390625 -4.125 L 1.390625 -1.65625 Z M 1.9375 -1.65625 "/></g></g></g><g fill="rgb(0%, 0%, 0%)" fill-opacity="1"><g transform="translate(196.617162, 32.950892)"><g><path d="M 2.171875 -0.328125 C 1.953125 -0.0664062 1.65625 0.0625 1.28125 0.0625 C 1.007812 0.0625 0.769531 -0.015625 0.5625 -0.171875 C 0.363281 -0.328125 0.265625 -0.53125 0.265625 -0.78125 C 0.265625 -1.039062 0.363281 -1.242188 0.5625 -1.390625 C 0.757812 -1.535156 1.015625 -1.609375 1.328125 -1.609375 C 1.640625 -1.609375 1.898438 -1.53125 2.109375 -1.375 L 2.109375 -2.046875 C 2.109375 -2.273438 2.078125 -2.425781 2.015625 -2.5 C 1.960938 -2.582031 1.898438 -2.640625 1.828125 -2.671875 C 1.753906 -2.710938 1.671875 -2.734375 1.578125 -2.734375 C 1.429688 -2.734375 1.304688 -2.710938 1.203125 -2.671875 C 1.097656 -2.640625 1.03125 -2.609375 1 -2.578125 C 1.082031 -2.546875 1.148438 -2.476562 1.203125 -2.375 C 1.210938 -2.34375 1.21875 -2.296875 1.21875 -2.234375 C 1.21875 -2.140625 1.179688 -2.054688 1.109375 -1.984375 C 1.035156 -1.910156 0.960938 -1.875 0.890625 -1.875 C 0.753906 -1.875 0.648438 -1.910156 0.578125 -1.984375 C 0.503906 -2.054688 0.46875 -2.140625 0.46875 -2.234375 C 0.46875 -2.335938 0.484375 -2.421875 0.515625 -2.484375 C 0.554688 -2.546875 0.609375 -2.601562 0.671875 -2.65625 C 0.785156 -2.75 0.925781 -2.820312 1.09375 -2.875 C 1.269531 -2.925781 1.4375 -2.953125 1.59375 -2.953125 C 2.019531 -2.953125 2.332031 -2.863281 2.53125 -2.6875 C 2.738281 -2.519531 2.84375 -2.28125 2.84375 -1.96875 L 2.84375 -0.453125 C 2.84375 -0.296875 2.878906 -0.21875 2.953125 -0.21875 C 3.035156 -0.21875 3.113281 -0.265625 3.1875 -0.359375 L 3.328125 -0.234375 C 3.203125 -0.046875 2.992188 0.046875 2.703125 0.046875 C 2.597656 0.046875 2.492188 0.015625 2.390625 -0.046875 C 2.285156 -0.109375 2.210938 -0.203125 2.171875 -0.328125 Z M 2.125 -1.109375 C 1.957031 -1.265625 1.78125 -1.34375 1.59375 -1.34375 C 1.40625 -1.34375 1.257812 -1.296875 1.15625 -1.203125 C 1.0625 -1.117188 1.015625 -0.976562 1.015625 -0.78125 C 1.015625 -0.488281 1.117188 -0.3125 1.328125 -0.25 C 1.378906 -0.226562 1.4375 -0.21875 1.5 -0.21875 C 1.675781 -0.21875 1.84375 -0.285156 2 -0.421875 C 2.039062 -0.460938 2.082031 -0.503906 2.125 -0.546875 Z M 2.125 -1.109375 "/></g></g></g><g fill="rgb(0%, 0%, 0%)" fill-opacity="1"><g transform="translate(200.009311, 32.950892)"><g><path d="M 2.828125 -0.40625 C 2.585938 -0.09375 2.21875 0.0625 1.71875 0.0625 C 1.539062 0.0625 1.351562 0.03125 1.15625 -0.03125 C 0.957031 -0.101562 0.785156 -0.207031 0.640625 -0.34375 C 0.335938 -0.625 0.1875 -0.992188 0.1875 -1.453125 C 0.1875 -1.921875 0.332031 -2.285156 0.625 -2.546875 C 0.925781 -2.816406 1.304688 -2.953125 1.765625 -2.953125 C 2.023438 -2.953125 2.265625 -2.894531 2.484375 -2.78125 C 2.710938 -2.664062 2.828125 -2.5 2.828125 -2.28125 C 2.828125 -2.164062 2.789062 -2.070312 2.71875 -2 C 2.644531 -1.9375 2.566406 -1.90625 2.484375 -1.90625 C 2.359375 -1.90625 2.253906 -1.9375 2.171875 -2 C 2.097656 -2.0625 2.0625 -2.144531 2.0625 -2.25 C 2.0625 -2.414062 2.132812 -2.535156 2.28125 -2.609375 C 2.132812 -2.691406 1.972656 -2.734375 1.796875 -2.734375 C 1.242188 -2.734375 0.96875 -2.304688 0.96875 -1.453125 C 0.96875 -0.859375 1.132812 -0.472656 1.46875 -0.296875 C 1.570312 -0.242188 1.695312 -0.21875 1.84375 -0.21875 C 2.1875 -0.21875 2.46875 -0.328125 2.6875 -0.546875 Z M 2.828125 -0.40625 "/></g></g></g><g fill="rgb(0%, 0%, 0%)" fill-opacity="1"><g transform="translate(202.921731, 32.950892)"><g><path d="M 1.28125 -3.59375 C 1.207031 -3.519531 1.113281 -3.484375 1 -3.484375 C 0.894531 -3.484375 0.800781 -3.519531 0.71875 -3.59375 C 0.644531 -3.664062 0.609375 -3.742188 0.609375 -3.828125 C 0.609375 -3.972656 0.644531 -4.082031 0.71875 -4.15625 C 0.800781 -4.226562 0.894531 -4.265625 1 -4.265625 C 1.175781 -4.265625 1.300781 -4.1875 1.375 -4.03125 C 1.394531 -3.976562 1.40625 -3.925781 1.40625 -3.875 C 1.40625 -3.757812 1.363281 -3.664062 1.28125 -3.59375 Z M 0.171875 -0.21875 L 0.640625 -0.21875 L 0.640625 -2.6875 L 0.21875 -2.6875 L 0.21875 -2.90625 L 1.390625 -2.90625 L 1.390625 -0.21875 L 1.84375 -0.21875 L 1.84375 0 L 0.171875 0 Z M 0.171875 -0.21875 "/></g></g></g><g fill="rgb(0%, 0%, 0%)" fill-opacity="1"><g transform="translate(204.860509, 32.950892)"><g><path d="M 0.203125 -1.453125 C 0.203125 -1.898438 0.34375 -2.257812 0.625 -2.53125 C 0.914062 -2.8125 1.273438 -2.953125 1.703125 -2.953125 C 2.128906 -2.953125 2.484375 -2.8125 2.765625 -2.53125 C 3.046875 -2.257812 3.1875 -1.898438 3.1875 -1.453125 C 3.1875 -1.003906 3.046875 -0.640625 2.765625 -0.359375 C 2.492188 -0.078125 2.140625 0.0625 1.703125 0.0625 C 1.265625 0.0625 0.90625 -0.078125 0.625 -0.359375 C 0.34375 -0.640625 0.203125 -1.003906 0.203125 -1.453125 Z M 1.6875 -0.171875 C 2.070312 -0.171875 2.296875 -0.429688 2.359375 -0.953125 C 2.378906 -1.109375 2.390625 -1.273438 2.390625 -1.453125 C 2.390625 -1.859375 2.347656 -2.160156 2.265625 -2.359375 C 2.148438 -2.597656 1.957031 -2.71875 1.6875 -2.71875 C 1.3125 -2.71875 1.085938 -2.460938 1.015625 -1.953125 C 1.003906 -1.804688 1 -1.640625 1 -1.453125 C 1 -1.054688 1.039062 -0.753906 1.125 -0.546875 C 1.238281 -0.296875 1.425781 -0.171875 1.6875 -0.171875 Z M 1.6875 -0.171875 "/></g></g></g><g fill="rgb(0%, 0%, 0%)" fill-opacity="1"><g transform="translate(208.249817, 32.950892)"><g><path d="M 1.40625 -2.515625 C 1.71875 -2.804688 2.050781 -2.953125 2.40625 -2.953125 C 2.519531 -2.953125 2.617188 -2.910156 2.703125 -2.828125 C 2.785156 -2.753906 2.828125 -2.660156 2.828125 -2.546875 C 2.828125 -2.429688 2.789062 -2.335938 2.71875 -2.265625 C 2.644531 -2.191406 2.554688 -2.15625 2.453125 -2.15625 C 2.347656 -2.15625 2.257812 -2.1875 2.1875 -2.25 C 2.113281 -2.320312 2.078125 -2.414062 2.078125 -2.53125 C 2.078125 -2.570312 2.082031 -2.613281 2.09375 -2.65625 C 1.820312 -2.570312 1.59375 -2.429688 1.40625 -2.234375 L 1.40625 -0.21875 L 2.03125 -0.21875 L 2.03125 0 L 0.25 0 L 0.25 -0.21875 L 0.671875 -0.21875 L 0.671875 -2.6875 L 0.25 -2.6875 L 0.25 -2.90625 L 1.40625 -2.90625 Z M 1.40625 -2.515625 "/></g></g></g><g fill="rgb(0%, 0%, 0%)" fill-opacity="1"><g transform="translate(211.15656, 32.950892)"><g><path d="M 3.046875 -0.5 C 2.742188 -0.125 2.320312 0.0625 1.78125 0.0625 C 1.59375 0.0625 1.398438 0.0234375 1.203125 -0.046875 C 1.003906 -0.128906 0.835938 -0.238281 0.703125 -0.375 C 0.421875 -0.65625 0.28125 -1.015625 0.28125 -1.453125 C 0.28125 -1.898438 0.421875 -2.257812 0.703125 -2.53125 C 0.992188 -2.8125 1.359375 -2.953125 1.796875 -2.953125 C 2.453125 -2.953125 2.863281 -2.675781 3.03125 -2.125 C 3.082031 -1.957031 3.109375 -1.765625 3.109375 -1.546875 L 1.0625 -1.546875 L 1.0625 -1.453125 C 1.0625 -0.867188 1.226562 -0.488281 1.5625 -0.3125 C 1.664062 -0.25 1.796875 -0.21875 1.953125 -0.21875 C 2.296875 -0.21875 2.609375 -0.359375 2.890625 -0.640625 Z M 2.34375 -1.78125 C 2.34375 -2.082031 2.296875 -2.3125 2.203125 -2.46875 C 2.117188 -2.625 1.976562 -2.703125 1.78125 -2.703125 C 1.363281 -2.703125 1.128906 -2.394531 1.078125 -1.78125 Z M 2.34375 -1.78125 "/></g></g></g><g fill="rgb(0%, 0%, 0%)" fill-opacity="1"><g transform="translate(214.545868, 32.950892)"><g><path d="M 0.171875 -0.21875 L 0.609375 -0.21875 L 0.609375 -4.5625 L 0.171875 -4.5625 L 0.171875 -4.78125 L 1.34375 -4.78125 L 1.34375 -1.46875 L 2.78125 -2.6875 L 2.25 -2.6875 L 2.25 -2.90625 L 3.515625 -2.90625 L 3.515625 -2.6875 L 3.140625 -2.6875 L 2.21875 -1.921875 L 3.40625 -0.21875 L 3.796875 -0.21875 L 3.796875 0 L 2.15625 0 L 2.15625 -0.21875 L 2.5625 -0.21875 L 1.703125 -1.484375 L 1.34375 -1.171875 L 1.34375 -0.21875 L 1.765625 -0.21875 L 1.765625 0 L 0.171875 0 Z M 0.171875 -0.21875 "/></g></g></g></svg>